<svg xmlns="http://www.w3.org/2000/svg" width="512" height="512" viewBox="0 0 100 100">
<!-- Arivom brand mark (D-027). Layers, back to front: AdS/CFT tensor
     network (MERA: 16 CFT boundary sites, disentangler bonds, isometry
     layers 16-8-4-1 into the bulk) / screen with deck / reader pages /
     Tamil Nadu in white. The state outline is the platform's real served
     boundary (district union, ST_Simplify 0.04). -->
<defs><clipPath id="tile"><rect x="3" y="3" width="94" height="94" rx="18"/></clipPath></defs>
<rect x="3" y="3" width="94" height="94" rx="18" fill="#16646e"/>
<g clip-path="url(#tile)"><g stroke="#0e4a52" stroke-width="0.85" opacity="0.9" fill="none"><path d="M 96.1 57.2 L 89.1 74.1"/><path d="M 89.1 74.1 L 76.1 87.1"/><path d="M 76.1 87.1 L 59.2 94.1"/><path d="M 59.2 94.1 L 40.8 94.1"/><path d="M 40.8 94.1 L 23.9 87.1"/><path d="M 23.9 87.1 L 10.9 74.1"/><path d="M 10.9 74.1 L 3.9 57.2"/><path d="M 3.9 57.2 L 3.9 38.8"/><path d="M 3.9 38.8 L 10.9 21.9"/><path d="M 10.9 21.9 L 23.9 8.9"/><path d="M 23.9 8.9 L 40.8 1.9"/><path d="M 40.8 1.9 L 59.2 1.9"/><path d="M 59.2 1.9 L 76.1 8.9"/><path d="M 76.1 8.9 L 89.1 21.9"/><path d="M 89.1 21.9 L 96.1 38.8"/><path d="M 96.1 38.8 L 96.1 57.2"/><path d="M 96.1 57.2 L 84.0 48.0"/><path d="M 89.1 74.1 L 84.0 48.0"/><path d="M 76.1 87.1 L 74.0 72.0"/><path d="M 59.2 94.1 L 74.0 72.0"/><path d="M 40.8 94.1 L 50.0 82.0"/><path d="M 23.9 87.1 L 50.0 82.0"/><path d="M 10.9 74.1 L 26.0 72.0"/><path d="M 3.9 57.2 L 26.0 72.0"/><path d="M 3.9 38.8 L 16.0 48.0"/><path d="M 10.9 21.9 L 16.0 48.0"/><path d="M 23.9 8.9 L 26.0 24.0"/><path d="M 40.8 1.9 L 26.0 24.0"/><path d="M 59.2 1.9 L 50.0 14.0"/><path d="M 76.1 8.9 L 50.0 14.0"/><path d="M 89.1 21.9 L 74.0 24.0"/><path d="M 96.1 38.8 L 74.0 24.0"/><path d="M 84.0 48.0 L 65.9 63.9"/><path d="M 74.0 72.0 L 65.9 63.9"/><path d="M 50.0 82.0 L 34.1 63.9"/><path d="M 26.0 72.0 L 34.1 63.9"/><path d="M 16.0 48.0 L 34.1 32.1"/><path d="M 26.0 24.0 L 34.1 32.1"/><path d="M 50.0 14.0 L 65.9 32.1"/><path d="M 74.0 24.0 L 65.9 32.1"/><path d="M 65.9 63.9 L 50.0 48.0"/><path d="M 34.1 63.9 L 50.0 48.0"/><path d="M 34.1 32.1 L 50.0 48.0"/><path d="M 65.9 32.1 L 50.0 48.0"/></g>
<g fill="#0e4a52" opacity="0.95"><circle cx="96.1" cy="57.2" r="1.35"/><circle cx="89.1" cy="74.1" r="1.35"/><circle cx="76.1" cy="87.1" r="1.35"/><circle cx="59.2" cy="94.1" r="1.35"/><circle cx="40.8" cy="94.1" r="1.35"/><circle cx="23.9" cy="87.1" r="1.35"/><circle cx="10.9" cy="74.1" r="1.35"/><circle cx="3.9" cy="57.2" r="1.35"/><circle cx="3.9" cy="38.8" r="1.35"/><circle cx="10.9" cy="21.9" r="1.35"/><circle cx="23.9" cy="8.9" r="1.35"/><circle cx="40.8" cy="1.9" r="1.35"/><circle cx="59.2" cy="1.9" r="1.35"/><circle cx="76.1" cy="8.9" r="1.35"/><circle cx="89.1" cy="21.9" r="1.35"/><circle cx="96.1" cy="38.8" r="1.35"/><circle cx="84.0" cy="48.0" r="1.2"/><circle cx="74.0" cy="72.0" r="1.2"/><circle cx="50.0" cy="82.0" r="1.2"/><circle cx="26.0" cy="72.0" r="1.2"/><circle cx="16.0" cy="48.0" r="1.2"/><circle cx="26.0" cy="24.0" r="1.2"/><circle cx="50.0" cy="14.0" r="1.2"/><circle cx="74.0" cy="24.0" r="1.2"/><circle cx="65.9" cy="63.9" r="1.1"/><circle cx="34.1" cy="63.9" r="1.1"/><circle cx="34.1" cy="32.1" r="1.1"/><circle cx="65.9" cy="32.1" r="1.1"/><circle cx="50.0" cy="48.0" r="1.1"/></g></g>
<rect x="14" y="14" width="72" height="58" rx="6" fill="#1d7480"/>
<rect x="14" y="14" width="72" height="58" rx="6" fill="none" stroke="#2b8894" stroke-width="1.6"/>
<path d="M24 76 h52 l-4 -3 h-44 z" fill="#2b8894"/>
<rect x="21" y="22" width="27" height="42" rx="3.5" fill="#2b8894"/>
<rect x="52" y="22" width="27" height="42" rx="3.5" fill="#2b8894"/>
<g transform="translate(-777.0 165.3) scale(10.5647)"><path d="M 77.58 -8.14 L 77.55 -8.08 77.31 -8.12 77.1 -8.29 77.18 -8.32 77.21 -8.5 77.28 -8.55 77.17 -8.75 77.26 -8.87 77.15 -9.02 77.27 -9.15 77.28 -9.3 77.41 -9.51 77.36 -9.61 77.17 -9.62 77.28 -9.97 77.2 -10.11 77.27 -10.13 77.3 -10.22 77.24 -10.35 76.98 -10.22 76.83 -10.3 76.82 -10.64 76.89 -10.64 76.91 -10.78 76.66 -10.93 76.72 -11.04 76.8 -11.05 76.7 -11.15 76.74 -11.22 76.46 -11.19 76.55 -11.36 76.25 -11.47 76.23 -11.57 76.47 -11.67 76.49 -11.6 76.85 -11.58 76.91 -11.79 77.01 -11.81 77.12 -11.72 77.11 -11.77 77.25 -11.81 77.43 -11.76 77.5 -11.94 77.68 -11.95 77.78 -12.12 77.73 -12.18 77.49 -12.2 77.47 -12.25 77.62 -12.37 77.6 -12.67 77.74 -12.67 77.84 -12.87 77.93 -12.89 77.92 -12.83 77.99 -12.81 78.06 -12.85 78.23 -12.76 78.2 -12.69 78.47 -12.62 78.5 -12.75 78.56 -12.7 78.66 -12.93 78.63 -12.99 78.71 -13.07 78.89 -13.1 78.94 -13.03 78.93 -13.08 78.99 -13.09 79.17 -13.02 79.23 -13.15 79.32 -13.11 79.44 -13.2 79.39 -13.32 79.44 -13.34 79.59 -13.26 79.68 -13.3 79.76 -13.21 79.8 -13.24 79.73 -13.29 79.94 -13.35 80.05 -13.5 80 -13.54 80.24 -13.47 80.27 -13.56 80.35 -13.29 80.16 -12.46 79.85 -12.08 79.84 -11.96 79.76 -11.95 79.75 -12.01 79.69 -11.96 79.72 -11.86 79.81 -11.84 79.72 -11.79 79.8 -11.79 79.76 -11.58 79.84 -11.35 79.85 -10.99 79.73 -10.96 79.85 -10.82 79.88 -10.3 79.68 -10.28 79.53 -10.31 79.59 -10.33 79.55 -10.35 79.3 -10.26 79.23 -10.15 79.27 -10.04 78.98 -9.69 78.9 -9.49 79.01 -9.33 79.19 -9.28 78.86 -9.25 78.38 -9.09 78.19 -8.93 78.16 -8.78 78.23 -8.75 78.14 -8.69 78.07 -8.37 77.72 -8.16 Z" fill="#faf8f3"/></g>
</svg>